<?xml version="1.0" encoding="UTF-8" standalone="no"?>
<!DOCTYPE svg PUBLIC "-//W3C//DTD SVG 1.1//EN"
 "http://www.w3.org/Graphics/SVG/1.1/DTD/svg11.dtd">
<!-- Generated by graphviz version 2.24.0 (20090616.2323)
 -->
<!-- Title: StoryQ Pages: 1 -->
<svg width="187pt" height="650pt"
 viewBox="0.00 0.00 187.00 650.00" xmlns="http://www.w3.org/2000/svg" xmlns:xlink="http://www.w3.org/1999/xlink">
<g id="graph1" class="graph" transform="scale(1 1) rotate(0) translate(4 646)">
<title>StoryQ</title>
<polygon fill="white" stroke="white" points="-4,5 -4,-646 184,-646 184,5 -4,5"/>
<!-- Story -->
<g id="node1" class="node"><title>Story</title>
<a xlink:title="This is the root item of any story">
<ellipse fill="none" stroke="black" cx="105" cy="-615" rx="21.9471" ry="22.3692"/>
<ellipse fill="none" stroke="black" cx="105" cy="-615" rx="25.8717" ry="26.3692"/>
<text text-anchor="middle" x="105" y="-611.5" font-family="Times New Roman,serif" font-size="10.00">Story</text>
</a>
</g>
<!-- Benefit -->
<g id="node2" class="node"><title>Benefit</title>
<a xlink:title="The real&#45;world objective (business value) of a story">
<ellipse fill="none" stroke="black" cx="105" cy="-522" rx="27" ry="18"/>
<text text-anchor="middle" x="105" y="-518.5" font-family="Times New Roman,serif" font-size="10.00">Benefit</text>
</a>
</g>
<!-- Story&#45;&gt;Benefit -->
<g id="edge2" class="edge"><title>Story&#45;&gt;Benefit</title>
<a xlink:title="Describe the real&#45;world value for this story. What is the business process that the user requires software support from?">
<path fill="none" stroke="black" d="M105,-588.101C105,-576.272 105,-562.372 105,-550.378"/>
<polygon fill="black" stroke="black" points="108.5,-550.014 105,-540.014 101.5,-550.014 108.5,-550.014"/>
</a>
<text text-anchor="middle" x="126" y="-560.5" font-family="Times New Roman,serif" font-size="10.00">InOrderTo</text>
</g>
<!-- Benefit&#45;&gt;Benefit -->
<g id="edge4" class="edge"><title>Benefit&#45;&gt;Benefit</title>
<a xlink:title="Describe any secondary business functions that this story will support">
<path fill="none" stroke="black" d="M129.532,-529.752C140.508,-530.49 150,-527.906 150,-522 150,-518.032 145.715,-515.563 139.574,-514.594"/>
<polygon fill="black" stroke="black" points="139.647,-511.095 129.532,-514.248 139.406,-518.091 139.647,-511.095"/>
</a>
<text text-anchor="middle" x="159" y="-518.5" font-family="Times New Roman,serif" font-size="10.00">And</text>
</g>
<!-- Role -->
<g id="node3" class="node"><title>Role</title>
<a xlink:title="The role (a category of actors/users) or roles that receive this benefit. ">
<ellipse fill="none" stroke="black" cx="105" cy="-438" rx="27" ry="18"/>
<text text-anchor="middle" x="105" y="-434.5" font-family="Times New Roman,serif" font-size="10.00">Role</text>
</a>
</g>
<!-- Benefit&#45;&gt;Role -->
<g id="edge6" class="edge"><title>Benefit&#45;&gt;Role</title>
<a xlink:title="The role of the person who is the intended user of this feature">
<path fill="none" stroke="black" d="M105,-503.773C105,-492.876 105,-478.795 105,-466.459"/>
<polygon fill="black" stroke="black" points="108.5,-466.191 105,-456.191 101.5,-466.191 108.5,-466.191"/>
</a>
<text text-anchor="middle" x="115" y="-476.5" font-family="Times New Roman,serif" font-size="10.00">AsA</text>
</g>
<!-- Role&#45;&gt;Role -->
<g id="edge8" class="edge"><title>Role&#45;&gt;Role</title>
<a xlink:title="Any other roles that may use this story">
<path fill="none" stroke="black" d="M129.532,-445.752C140.508,-446.49 150,-443.906 150,-438 150,-434.032 145.715,-431.563 139.574,-430.594"/>
<polygon fill="black" stroke="black" points="139.647,-427.095 129.532,-430.248 139.406,-434.091 139.647,-427.095"/>
</a>
<text text-anchor="middle" x="164.5" y="-434.5" font-family="Times New Roman,serif" font-size="10.00">OrAsA</text>
</g>
<!-- Feature -->
<g id="node4" class="node"><title>Feature</title>
<a xlink:title="The software process that will implement the specified benefit.">
<ellipse fill="none" stroke="black" cx="105" cy="-354" rx="27.0785" ry="18"/>
<text text-anchor="middle" x="105" y="-350.5" font-family="Times New Roman,serif" font-size="10.00">Feature</text>
</a>
</g>
<!-- Role&#45;&gt;Feature -->
<g id="edge10" class="edge"><title>Role&#45;&gt;Feature</title>
<a xlink:title="Describe the software process (features) that will support the business requirement">
<path fill="none" stroke="black" d="M105,-419.773C105,-408.876 105,-394.795 105,-382.459"/>
<polygon fill="black" stroke="black" points="108.5,-382.191 105,-372.191 101.5,-382.191 108.5,-382.191"/>
</a>
<text text-anchor="middle" x="118" y="-392.5" font-family="Times New Roman,serif" font-size="10.00">IWant</text>
</g>
<!-- Feature&#45;&gt;Feature -->
<g id="edge12" class="edge"><title>Feature&#45;&gt;Feature</title>
<a xlink:title="Any other features that will implement the desired benefit">
<path fill="none" stroke="black" d="M129.532,-361.752C140.508,-362.49 150,-359.906 150,-354 150,-350.032 145.715,-347.563 139.574,-346.594"/>
<polygon fill="black" stroke="black" points="139.647,-343.095 129.532,-346.248 139.406,-350.091 139.647,-343.095"/>
</a>
<text text-anchor="middle" x="159" y="-350.5" font-family="Times New Roman,serif" font-size="10.00">And</text>
</g>
<!-- Scenario -->
<g id="node5" class="node"><title>Scenario</title>
<a xlink:title="The name of each scenario within a story. You can think of each scenario as a chapter in a book.">
<ellipse fill="none" stroke="black" cx="105" cy="-270" rx="30.0218" ry="18"/>
<text text-anchor="middle" x="105" y="-266.5" font-family="Times New Roman,serif" font-size="10.00">Scenario</text>
</a>
</g>
<!-- Feature&#45;&gt;Scenario -->
<g id="edge14" class="edge"><title>Feature&#45;&gt;Scenario</title>
<a xlink:title="Add a scenario (&#39;given&#39;/&#39;when&#39;/&#39;then&#39;) to this story. Scenarios can be added (and will be run) in sequence. Each scenario should have a short descriptive name.">
<path fill="none" stroke="black" d="M105,-335.773C105,-324.876 105,-310.795 105,-298.459"/>
<polygon fill="black" stroke="black" points="108.5,-298.191 105,-288.191 101.5,-298.191 108.5,-298.191"/>
</a>
<text text-anchor="middle" x="132.5" y="-308.5" font-family="Times New Roman,serif" font-size="10.00">WithScenario</text>
</g>
<!-- Condition -->
<g id="node6" class="node"><title>Condition</title>
<a xlink:title="The preconditions that are meant to be present at the beginning of the scenario.">
<ellipse fill="skyblue" stroke="black" cx="33" cy="-186" rx="32.9651" ry="18"/>
<text text-anchor="middle" x="33" y="-182.5" font-family="Times New Roman,serif" font-size="10.00">Condition</text>
</a>
</g>
<!-- Scenario&#45;&gt;Condition -->
<g id="edge16" class="edge"><title>Scenario&#45;&gt;Condition</title>
<a xlink:title="Provide the initial context to the scenario. Try not to describe behaviour or actions, this step describes and sets up initial state">
<path fill="none" stroke="black" d="M91.1177,-253.804C80.5282,-241.45 65.77,-224.232 53.7757,-210.238"/>
<polygon fill="black" stroke="black" points="56.2507,-207.748 47.0854,-202.433 50.9359,-212.303 56.2507,-207.748"/>
</a>
<text text-anchor="middle" x="85.5" y="-224.5" font-family="Times New Roman,serif" font-size="10.00">Given</text>
</g>
<!-- Condition&#45;&gt;Condition -->
<g id="edge18" class="edge"><title>Condition&#45;&gt;Condition</title>
<a xlink:title="Provide another precondition to describe our scenario&#39;s initial state">
<path fill="none" stroke="black" d="M62.8595,-193.844C74.4043,-194.193 84,-191.578 84,-186 84,-182.165 79.4645,-179.731 72.8784,-178.697"/>
<polygon fill="black" stroke="black" points="73.0338,-175.2 62.8595,-178.156 72.656,-182.19 73.0338,-175.2"/>
</a>
<text text-anchor="middle" x="93" y="-182.5" font-family="Times New Roman,serif" font-size="10.00">And</text>
</g>
<!-- Operation -->
<g id="node7" class="node"><title>Operation</title>
<a xlink:title="The action(s) that are performed upon the system under test">
<ellipse fill="skyblue" stroke="black" cx="33" cy="-102" rx="32.9651" ry="18"/>
<text text-anchor="middle" x="33" y="-98.5" font-family="Times New Roman,serif" font-size="10.00">Operation</text>
</a>
</g>
<!-- Condition&#45;&gt;Operation -->
<g id="edge20" class="edge"><title>Condition&#45;&gt;Operation</title>
<a xlink:title="Describe the actions that are done to the system under test. &#39;">
<path fill="none" stroke="black" d="M33,-167.773C33,-156.876 33,-142.795 33,-130.459"/>
<polygon fill="black" stroke="black" points="36.5001,-130.191 33,-120.191 29.5001,-130.191 36.5001,-130.191"/>
</a>
<text text-anchor="middle" x="45.5" y="-140.5" font-family="Times New Roman,serif" font-size="10.00">When</text>
</g>
<!-- Operation&#45;&gt;Operation -->
<g id="edge22" class="edge"><title>Operation&#45;&gt;Operation</title>
<a xlink:title="Provide another action that is to be performed on the system, prior to our check for behaviour (&#39;then&#39;)">
<path fill="none" stroke="black" d="M62.8595,-109.844C74.4043,-110.193 84,-107.578 84,-102 84,-98.165 79.4645,-95.7307 72.8784,-94.6971"/>
<polygon fill="black" stroke="black" points="73.0338,-91.2005 62.8595,-94.1558 72.656,-98.1903 73.0338,-91.2005"/>
</a>
<text text-anchor="middle" x="93" y="-98.5" font-family="Times New Roman,serif" font-size="10.00">And</text>
</g>
<!-- Outcome -->
<g id="node8" class="node"><title>Outcome</title>
<a xlink:title="The result that is expected from executing the specified actions on the specified initial state">
<ellipse fill="skyblue" stroke="black" cx="97" cy="-18" rx="30.1087" ry="18"/>
<text text-anchor="middle" x="97" y="-14.5" font-family="Times New Roman,serif" font-size="10.00">Outcome</text>
</a>
</g>
<!-- Operation&#45;&gt;Outcome -->
<g id="edge24" class="edge"><title>Operation&#45;&gt;Outcome</title>
<a xlink:title="Describe the system&#39;s behaviour that the prior state and actions should elicit">
<path fill="none" stroke="black" d="M45.9514,-85.0013C55.2676,-72.7738 67.9706,-56.1011 78.3739,-42.4467"/>
<polygon fill="black" stroke="black" points="81.227,-44.4772 84.5035,-34.4017 75.659,-40.2349 81.227,-44.4772"/>
</a>
<text text-anchor="middle" x="79.5" y="-56.5" font-family="Times New Roman,serif" font-size="10.00">Then</text>
</g>
<!-- Outcome&#45;&gt;Scenario -->
<g id="edge28" class="edge"><title>Outcome&#45;&gt;Scenario</title>
<a xlink:title="Add another scenario to this story. StoryQ executes these scenarios one after the other, so state can be shared between a single story&#39;s scenarios.">
<path fill="none" stroke="black" d="M101.824,-35.7665C105.147,-48.9604 109.265,-67.4579 111,-84 116.834,-139.619 112.036,-205.059 108.316,-241.612"/>
<polygon fill="black" stroke="black" points="104.79,-241.671 107.209,-251.986 111.75,-242.413 104.79,-241.671"/>
</a>
<text text-anchor="middle" x="140.5" y="-140.5" font-family="Times New Roman,serif" font-size="10.00">WithScenario</text>
</g>
<!-- Outcome&#45;&gt;Outcome -->
<g id="edge26" class="edge"><title>Outcome&#45;&gt;Outcome</title>
<a xlink:title="Provide another resultant behaviour to check for">
<path fill="none" stroke="black" d="M124.14,-25.8058C135.43,-26.3441 145,-23.7422 145,-18 145,-14.142 140.68,-11.7015 134.42,-10.6786"/>
<polygon fill="black" stroke="black" points="134.293,-7.16881 124.14,-10.1942 133.964,-14.1611 134.293,-7.16881"/>
</a>
<text text-anchor="middle" x="154" y="-14.5" font-family="Times New Roman,serif" font-size="10.00">And</text>
</g>
</g>
</svg>
